<svg width="235" height="44" viewBox="0 0 235 44" fill="none" xmlns="http://www.w3.org/2000/svg">
<path d="M24.0593 8.66536L18.8317 8.65425C18.5471 8.65276 18.3143 8.82476 18.2432 9.08868L16.783 14.428L12.8028 29.2849C12.7858 29.3487 12.8332 29.4109 12.8999 29.4117L13.1564 29.4124C13.1831 29.4124 13.209 29.402 13.2283 29.3828L24.8576 17.5854C24.9555 17.4861 25.0155 17.3534 25.0266 17.2066C25.1408 15.7335 25.1837 14.2337 25.1563 12.7073C25.1311 11.3054 25.0955 10.9347 24.8554 9.35706C24.7976 8.976 24.4403 8.66685 24.0593 8.66536Z" fill="#101010"/>
<path d="M45.4431 10.5495L43.6487 10.5169C43.3633 10.5154 43.1306 10.6874 43.0602 10.9514L41.7587 15.8925C41.755 15.9044 41.769 15.914 41.7794 15.9059L42.6184 15.2476C42.6325 15.235 42.6466 15.2231 42.6614 15.2105C42.8845 14.9962 43.2714 14.6115 43.8199 14.0547C44.384 13.4816 44.9754 12.8796 45.5906 12.248C45.7255 12.1094 45.7952 12.0389 45.83 12.0026L46.0724 11.7506C46.4793 11.328 46.0724 10.5518 45.4431 10.5495Z" fill="#101010"/>
<path d="M169.233 10.7591L165.203 10.7421C164.919 10.7413 164.686 10.9133 164.616 11.1765L160.2 27.7082C160.165 27.8386 160.263 27.9654 160.397 27.9662C160.452 27.9662 160.505 27.9447 160.544 27.9054L170.016 18.2966C170.114 18.1972 170.174 18.0645 170.185 17.9177C170.276 16.7226 170.31 15.5068 170.288 14.2687C170.268 13.1559 170.213 12.6978 170.028 11.4501C169.971 11.0683 169.614 10.7606 169.233 10.7591Z" fill="#101010"/>
<path d="M184.041 13.9891C183.967 13.9795 183.896 14.0136 183.856 14.0759L179.67 20.614C179.376 21.0721 179.794 21.7416 180.376 21.7438L184.298 21.7609C184.674 21.7623 184.942 21.4651 184.905 21.0892L184.207 14.1589C184.198 14.0707 184.129 14.0003 184.041 13.9891Z" fill="#101010"/>
<path d="M222.119 30.0693C220.341 30.0619 218.902 28.6666 218.91 26.9066C218.917 25.1844 220.368 23.8011 222.145 23.8085C223.942 23.8159 225.343 25.2111 225.336 26.934C225.329 28.6933 223.915 30.0767 222.119 30.0693ZM207.941 34.0971C207.627 34.4137 207.315 33.9896 207.489 33.7064L213.806 21.766C213.986 21.379 213.75 20.8734 213.311 20.7051C213.204 20.6643 213.094 20.6228 212.982 20.5798L208.759 19.8066C208.216 19.7006 207.696 18.3935 209.043 17.3297C209.067 17.3112 209.082 17.2808 209.104 17.2607L222.276 5.0112C222.287 5.00304 222.573 4.71317 222.798 4.48705C222.95 4.33359 223.192 4.31802 223.363 4.44925C223.529 4.57602 223.579 4.80361 223.482 4.98896L218.875 13.7815C218.664 14.1737 218.916 14.7853 219.371 14.8795L223.41 15.3918C223.854 15.4489 223.943 15.6527 224.008 15.8292C224.074 16.0056 224.12 16.1835 224.15 16.3637C224.237 16.9034 224.057 17.4261 223.61 17.9295L207.941 34.0971ZM205.619 17.4031C205.536 17.4772 205.476 17.5743 205.447 17.6855L202.197 29.818C202.125 30.0826 201.893 30.2546 201.608 30.2531L196.434 30.2309C195.939 30.2294 195.532 29.7268 195.655 29.2671L198.204 19.7124C198.242 19.5708 198.23 19.4144 198.17 19.2669L193.94 8.90929C193.758 8.46447 194.032 8.02706 194.494 8.02929L200.773 8.05523C201.085 8.05672 201.387 8.2643 201.514 8.56529L204.017 14.4925C204.22 14.9736 204.827 15.1612 205.174 14.8498L212.527 8.25837C212.637 8.15977 212.784 8.10565 212.943 8.10639L214.005 8.11084C214.665 8.1138 215.07 8.94709 214.611 9.35781L205.619 17.4031ZM192.978 30.2168L186.629 30.1901C186.233 30.1886 185.872 29.8602 185.832 29.4651L185.327 24.601C185.286 24.2058 184.925 23.8767 184.53 23.8752L177.719 23.8463L177.479 24.1984L173.983 29.858C173.875 30.0337 173.682 30.136 173.463 30.1345L172.56 30.1308C171.98 30.1286 171.561 29.4599 171.854 29.0017L174.654 24.6091L176.367 21.9039L184.993 8.26282C185.102 8.09082 185.293 7.99074 185.51 7.99148L190.069 8.01075C190.457 8.01224 190.813 8.3288 190.864 8.71653L193.582 29.5244C193.632 29.9091 193.362 30.2183 192.978 30.2168ZM170.204 25.5062C169.756 25.951 169.371 26.3365 169.047 26.6642C168.724 26.9919 168.516 27.2024 168.42 27.2958C168.139 27.5523 167.797 27.8452 167.392 28.1721C166.987 28.4991 166.558 28.8023 166.108 29.0825C165.656 29.3628 165.199 29.6015 164.735 29.7987C164.27 29.9966 163.839 30.0945 163.439 30.093L153.559 30.0515C153.063 30.0493 152.656 29.5451 152.78 29.0862L158.375 8.27839C158.446 8.0152 158.679 7.84395 158.963 7.84469L176.186 7.91734C176.304 7.91734 176.407 8.12344 176.496 8.5349C176.585 8.94635 176.662 9.47495 176.724 10.1214C176.785 10.7679 176.828 11.484 176.853 12.2706C176.877 13.058 176.88 13.8334 176.865 14.5955C176.848 15.3591 176.812 16.0634 176.757 16.7092C176.701 17.3556 176.63 17.842 176.542 18.1697L176.391 18.7331C176.335 18.9444 176.267 19.1327 176.187 19.2958C176.108 19.4604 175.94 19.6709 175.683 19.9282C175.419 20.2091 175.07 20.5717 174.634 21.0157C174.197 21.4606 173.727 21.9395 173.225 22.4547C172.723 22.9685 172.206 23.4949 171.674 24.0331C171.142 24.5706 170.652 25.0621 170.204 25.5062ZM149.816 30.0359L147.914 30.0278C147.6 30.0263 147.296 29.8165 147.171 29.514L143.146 19.8288C142.879 19.1853 141.98 19.1319 141.815 19.7502L139.188 29.554C139.118 29.818 138.885 29.9899 138.6 29.9885L133.128 29.9655C132.631 29.9633 132.225 29.4591 132.349 29.0002L137.957 8.22797C138.028 7.96479 138.261 7.79354 138.546 7.79428L143.22 7.81355C143.53 7.81503 143.831 8.02113 143.959 8.31916L146.322 13.826C146.596 14.4628 147.485 14.5103 147.65 13.8964L149.156 8.27616C149.226 8.01224 149.459 7.84024 149.744 7.84172L155.319 7.8647C155.816 7.86693 156.223 8.37254 156.097 8.83218L150.404 29.6044C150.332 29.8669 150.099 30.0367 149.816 30.0359ZM129.296 29.9492L116.026 29.8936C115.815 29.8928 115.538 29.8276 115.197 29.6971C114.856 29.5666 114.555 29.3301 114.294 28.9884C114.033 28.6473 113.85 28.1877 113.746 27.6124C113.642 27.0364 113.709 26.3032 113.948 25.4113L118.539 8.14865C118.61 7.88398 118.843 7.71199 119.128 7.71273L124.346 7.73497C124.841 7.73645 125.248 8.23983 125.125 8.69874L121.108 23.5786C121.098 23.6187 121.09 23.6632 121.087 23.7062C121.034 24.4238 121.07 24.9531 121.194 25.2956C121.323 25.6485 121.474 25.8961 121.649 26.0377C121.822 26.1786 122.176 26.4195 122.653 26.4292L123.327 26.4321C123.612 26.4329 123.845 26.2609 123.915 25.997L128.716 8.19017C128.787 7.92624 129.02 7.75424 129.304 7.75572L134.703 7.77796C135.198 7.78019 135.605 8.28432 135.482 8.74322L129.885 29.5155C129.814 29.7794 129.581 29.9507 129.296 29.9492ZM98.1661 33.6367C97.8511 33.9533 97.5398 33.5292 97.7147 33.246L104.031 21.3049C104.211 20.9186 103.976 20.4123 103.536 20.2447C103.429 20.204 103.32 20.1617 103.208 20.1194L98.9837 19.3455C98.4411 19.2394 97.9215 17.9332 99.2676 16.8693C99.292 16.8508 99.3076 16.8204 99.3298 16.8004L112.502 4.55081C112.513 4.54266 112.798 4.25278 113.023 4.02667C113.175 3.87321 113.417 3.85689 113.588 3.98812C113.753 4.11563 113.804 4.34323 113.707 4.52857L109.1 13.3211C108.89 13.7133 109.141 14.3249 109.596 14.4191L113.635 14.9314C114.079 14.9877 114.168 15.1923 114.233 15.368C114.298 15.5452 114.346 15.7232 114.375 15.9026C114.462 16.443 114.283 16.9657 113.836 17.4683L98.1661 33.6367ZM96.1427 11.4366L91.3138 29.4406C91.2434 29.7045 91.0106 29.8765 90.726 29.875L85.1782 29.8521C84.6823 29.8498 84.2754 29.3457 84.3992 28.8868L88.9568 11.9311C89.0806 11.4722 88.6736 10.9681 88.1785 10.9658L84.7223 10.9517C84.2265 10.9495 84.2072 9.05459 84.3302 8.59643L84.4651 8.09156C84.5356 7.82838 84.769 7.65638 85.0536 7.65787L101.156 7.72459C101.652 7.72681 102.058 8.2302 101.935 8.6891L101.413 10.5848C101.343 10.8487 101.11 11.0207 100.825 11.0192L96.7304 11.0022C96.4458 11.0007 96.2131 11.1727 96.1427 11.4366ZM83.0339 8.60978L82.5158 10.4936C82.4454 10.7575 82.2126 10.9295 81.9273 10.9288L74.4175 10.8969C74.1329 10.8961 73.9001 11.0681 73.829 11.3321L72.9736 14.5726C72.8506 15.0315 73.2575 15.5348 73.7526 15.5363L78.4881 15.5563C79.1471 15.5593 79.2968 16.1606 79.0974 16.8018L78.5445 18.3913C78.434 18.4914 78.2858 18.5455 78.1264 18.5448L72.1569 18.5196C71.8715 18.5181 71.6387 18.6901 71.5683 18.9548L68.8393 29.3457C68.7689 29.6096 68.5361 29.7824 68.2507 29.7809L63.0542 29.7594C62.5584 29.7572 62.1515 29.253 62.2752 28.7941L67.8794 8.02113C67.9506 7.75795 68.1826 7.58669 68.4672 7.58743L82.2542 7.64526C82.75 7.64749 83.1569 8.15087 83.0339 8.60978ZM59.2719 29.7431L53.6663 29.7194C53.1697 29.7179 52.7627 29.2123 52.888 28.7534L58.5418 7.9811C58.6137 7.71866 58.8457 7.5474 59.1296 7.54888L64.6908 7.57187C65.1867 7.57409 65.5928 8.07822 65.469 8.53712L59.8597 29.3101C59.7885 29.5733 59.5558 29.7446 59.2719 29.7431ZM50.6711 29.2753C50.5984 29.5362 50.3672 29.706 50.0841 29.7045L44.9187 29.683C44.4235 29.6808 44.0166 29.1774 44.1397 28.7185L46.831 18.6738C46.954 18.2149 46.5478 17.7122 46.052 17.71L41.5722 17.6915C41.2875 17.69 41.0548 17.862 40.9837 18.1259L38.0122 29.2167C37.9418 29.4806 37.7091 29.6526 37.4237 29.6519L31.9907 29.6289C31.483 29.6267 31.0731 29.1003 31.2192 28.6377L31.6876 27.1616L36.2222 10.2356L36.8344 7.89584C36.9041 7.62969 37.1376 7.45621 37.4237 7.4577L55.2813 7.53258C55.4221 7.53332 55.5222 7.59856 55.5822 7.72755C55.6408 7.85729 55.6779 8.00408 55.6927 8.16792C55.7068 8.33251 55.7031 8.50302 55.6793 8.67872C55.6556 8.85517 55.6312 8.99084 55.606 9.08351C55.5244 9.38895 55.4503 9.60024 55.3836 9.71663C55.3169 9.83451 55.1516 10.0332 54.8885 10.3142C54.7202 10.501 54.4319 10.8109 54.022 11.2438C53.6121 11.6768 53.1711 12.1387 52.699 12.6302C52.2269 13.121 51.7799 13.5836 51.3582 14.0158C50.9364 14.4495 50.6451 14.7475 50.4843 14.9106L50.4006 15.222C50.3946 15.242 50.4094 15.262 50.4309 15.2628C50.5651 15.2672 50.8223 15.2858 51.2033 15.3184C51.628 15.3554 52.0638 15.44 52.5107 15.5704C52.9569 15.7024 53.3372 15.8855 53.6499 16.122C53.9627 16.3578 54.0687 16.6632 53.9687 17.0391L51.2344 27.2432L50.6711 29.2753ZM28.7391 22.6897C28.1261 23.3177 27.4954 23.959 26.8469 24.6158C26.1983 25.2712 25.6002 25.8702 25.0539 26.4121C24.5069 26.9541 24.037 27.4248 23.6441 27.8244C23.2491 28.224 22.9949 28.4805 22.8777 28.5947C22.5368 28.9083 22.1188 29.2649 21.6244 29.663C21.1307 30.0626 20.6082 30.4318 20.0582 30.7736C19.5083 31.1153 18.9494 31.4067 18.3831 31.6469C17.8169 31.8886 17.2906 32.0079 16.8044 32.0057L4.52428 31.9538C4.02916 31.9523 3.62224 31.449 3.74528 30.99L9.81196 8.34585C9.82753 8.28877 9.80602 8.15235 9.74969 7.93736C9.69188 7.72236 9.64667 7.57187 9.61257 7.48587L7.5958 6.11583C7.00136 5.71253 7.16812 4.85477 7.84113 4.85774L32.3495 4.96004C32.4925 4.96079 32.6185 5.21285 32.7282 5.71327C32.8364 6.21591 32.9291 6.86016 33.0054 7.64823C33.0803 8.43704 33.1329 9.31036 33.1626 10.2697C33.1915 11.2298 33.1967 12.1757 33.1774 13.1054C33.1567 14.0373 33.1129 14.8958 33.0462 15.6831C32.9773 16.4712 32.8906 17.0643 32.7838 17.4646L32.5993 18.1519C32.5303 18.4084 32.4473 18.6389 32.351 18.8384C32.2546 19.0385 32.0493 19.295 31.7358 19.6086C31.4148 19.9512 30.9879 20.3937 30.4565 20.9357C29.9236 21.4776 29.3513 22.0626 28.7391 22.6897ZM226.013 22.0907L225.455 21.7497L226.469 20.6992C226.502 20.6658 226.533 20.6317 226.563 20.5976C227.647 19.3751 228.11 17.8783 227.868 16.3845C227.806 16.0019 227.703 15.6179 227.565 15.2442C227.212 14.2975 226.491 13.522 225.538 13.0617C225.303 12.949 225.056 12.8645 224.801 12.8111C224.581 12.7659 224.392 12.6176 224.297 12.4167C224.202 12.215 224.206 11.9859 224.309 11.7873L226.989 6.66296C227.469 5.74441 227.504 4.67388 227.084 3.72641L226.99 3.51439C226.735 2.94131 226.397 2.49056 225.981 2.17548C224.929 1.37778 223.46 1.30438 222.356 1.98125L221.173 2.70556C221.068 2.77154 220.968 2.84049 220.868 2.91759C220.789 2.97838 220.712 3.04362 220.637 3.11257L217.533 6.00537C217.296 6.22555 216.941 6.25743 216.668 6.08173C216.024 5.6673 215.288 5.44638 214.54 5.44341L213.479 5.43896C212.529 5.43452 211.619 5.77851 210.917 6.40719L206.909 10.0006C206.739 10.1526 206.503 10.2141 206.281 10.1644C206.057 10.1147 205.87 9.95906 205.781 9.74777L205.01 7.89881C204.691 6.44944 203.386 5.39671 201.907 5.39003H201.836C201.744 5.38929 201.655 5.39597 201.566 5.40264L201.53 5.4056L201.495 5.40412C201.457 5.4019 201.418 5.39819 201.381 5.39374C201.357 5.39078 201.333 5.38781 201.309 5.38781L186.047 5.32405C184.725 5.31812 183.518 5.97571 182.817 7.08257L180.507 10.7338L180.305 9.32519C180.254 8.96934 180.199 8.65945 180.139 8.37699C179.489 5.41079 177.178 5.2514 176.722 5.24918L119.664 5.0453C119.283 5.04382 118.903 5.10016 118.533 5.21359C118.318 5.28105 118.091 5.24399 117.91 5.11351C117.729 4.98303 117.622 4.77841 117.617 4.5523C117.605 4.13342 117.514 3.7279 117.345 3.34758L117.215 3.054C116.961 2.48093 116.622 2.03092 116.205 1.7151C115.154 0.917391 113.685 0.843254 112.581 1.52086L111.398 2.24517C111.294 2.31041 111.193 2.3801 111.093 2.4572C111.014 2.51799 110.938 2.58249 110.864 2.65144L105.478 7.66898L105.15 7.09517C105.048 6.91873 104.951 6.77045 104.852 6.64146C104.099 5.6547 102.917 5.06235 101.692 5.05716L37.9596 4.78953C37.5986 4.78805 37.2399 4.83846 36.893 4.93854C36.5476 5.03492 36.1852 4.86218 36.0458 4.53302C35.1972 2.51948 33.5532 2.29558 32.8854 2.29262L8.37701 2.19031C6.69153 2.1829 5.22693 3.2512 4.73256 4.84736C4.21817 6.50579 4.8578 8.29025 6.32463 9.28664L6.82642 9.62693L1.18222 30.6905C0.868699 31.8656 1.11997 33.1052 1.87302 34.0912C2.62756 35.0779 3.80829 35.671 5.03348 35.6755L17.3136 35.7274C18.2364 35.7311 19.1925 35.525 20.1553 35.115C20.8669 34.8118 21.5769 34.4418 22.267 34.0141C22.9281 33.6034 23.5626 33.1526 24.1533 32.6759C24.707 32.2281 25.168 31.8352 25.5609 31.4742L25.6328 31.4067C25.7551 31.2873 26.0241 31.0167 26.4429 30.5927C26.7149 30.3161 27.0314 29.9974 27.3835 29.6474C27.5717 29.4591 27.8452 29.3932 28.0972 29.4725C28.3522 29.554 28.5397 29.769 28.5864 30.0337C28.6902 30.6357 28.9318 31.2088 29.2846 31.6921C30.0377 32.7256 31.2392 33.3446 32.4999 33.3505L68.7599 33.5025C70.4862 33.5099 72.0042 32.3497 72.4518 30.6824L74.5265 22.7824C74.6072 22.4696 74.8919 22.2509 75.2165 22.2523L78.6356 22.2664C79.5332 22.2701 80.4049 21.9602 81.0883 21.3924C81.4626 21.081 81.9584 20.3285 82.1482 19.7821L82.521 18.7516C83.0798 17.7708 83.1651 16.5735 82.7456 15.4792C82.7256 15.4259 82.7048 15.3747 82.6833 15.3243L82.4172 14.7082L83.0791 14.5985C83.2511 14.5703 83.4326 14.5244 83.6335 14.4576C83.7817 14.408 83.9456 14.4117 84.0923 14.4658C84.3139 14.5474 84.5407 14.6059 84.7631 14.6378C84.9654 14.6682 85.1456 14.7816 85.2567 14.9514C85.3672 15.1182 85.4005 15.3258 85.3494 15.52L81.8383 28.5836C81.5219 29.7594 81.7724 30.9989 82.5254 31.9864C83.2792 32.9747 84.4614 33.5685 85.6874 33.5737L91.2352 33.5967C92.5753 33.6026 93.8331 32.8916 94.518 31.7418L95.4333 32.2563L95.3548 32.4046C95.0716 32.9398 94.936 33.5433 94.9634 34.149C94.9871 34.682 95.0294 34.9334 95.105 35.2351C95.1687 35.4901 95.2466 35.694 95.3429 35.8615C95.9492 36.9128 97.0047 37.5444 98.1669 37.5489C98.6049 37.5504 99.0326 37.4636 99.4358 37.2909L100.067 37.021C100.321 36.9121 100.565 36.7757 100.792 36.614C100.947 36.5013 101.094 36.3753 101.226 36.2382L109.822 27.347C110.022 27.1402 110.322 27.0742 110.591 27.1794C110.858 27.284 111.034 27.536 111.041 27.8222C111.049 28.1499 111.076 28.439 111.125 28.7059C111.32 29.7846 111.709 30.7098 112.28 31.4571C112.906 32.2763 113.677 32.8642 114.572 33.2052C115.285 33.4788 115.927 33.613 116.535 33.616L139.109 33.7108C140.835 33.7175 142.351 32.5654 142.796 30.9078L143.501 28.2759L144.745 31.2688C145.369 32.7693 146.813 33.7427 148.423 33.7494L163.949 33.8146C164.784 33.8184 165.645 33.6338 166.507 33.266C167.119 33.0058 167.728 32.6885 168.317 32.323C168.5 32.2096 168.678 32.0902 168.854 31.9694C169.175 31.7477 169.605 31.8263 169.832 32.1466C170.583 33.2097 171.793 33.8473 173.069 33.8532L173.972 33.8569C175.31 33.8621 176.525 33.1919 177.223 32.0643L179.787 27.9141C179.913 27.7066 180.147 27.5768 180.394 27.5776L182.256 27.5857C182.619 27.5872 182.922 27.8608 182.96 28.2218L183.16 30.1597C183.381 32.2897 185.163 33.9036 187.304 33.9125L202.117 33.9748C202.768 33.977 203.414 33.8102 203.987 33.4914L204.889 32.988L204.763 34.0148C204.737 34.215 204.728 34.381 204.734 34.5375C204.751 34.943 204.774 35.1876 204.823 35.4397C204.902 35.8549 205.039 36.213 205.229 36.5021C205.854 37.4555 206.842 38.0048 207.942 38.0093C208.38 38.0115 208.808 37.9248 209.21 37.752L209.843 37.4822C210.097 37.3724 210.341 37.236 210.566 37.0744C210.721 36.964 210.867 36.8372 211.001 36.6985L216.401 31.1131C216.545 30.9634 216.746 30.8833 216.954 30.8996C217.162 30.9122 217.354 31.0175 217.479 31.1858C218.682 32.8086 220.606 33.782 222.628 33.7909C226.156 33.8057 229.037 30.9723 229.052 27.4745C229.061 25.2734 227.925 23.2606 226.013 22.0907Z" fill="#101010"/>
<path d="M222.628 33.7909C220.606 33.7828 218.682 32.8086 217.479 31.1858C217.354 31.0175 217.163 30.9129 216.954 30.8996C216.746 30.8833 216.545 30.9634 216.401 31.1131L211.001 36.6985C210.867 36.8372 210.721 36.964 210.566 37.0744C210.341 37.236 210.097 37.3724 209.843 37.4822L209.21 37.752C208.807 37.9255 208.381 38.0115 207.942 38.0093C206.842 38.0048 205.854 37.4555 205.229 36.5021C205.039 36.213 204.902 35.8549 204.823 35.4397C204.774 35.1876 204.751 34.943 204.734 34.5375C204.728 34.381 204.737 34.215 204.763 34.0148L204.889 32.988L203.987 33.4914C203.414 33.8102 202.768 33.977 202.117 33.9748L187.304 33.9125C185.163 33.9029 183.381 32.2904 183.16 30.1597L182.96 28.2218C182.922 27.8608 182.619 27.5872 182.256 27.5857L180.394 27.5776C180.147 27.5768 179.913 27.7066 179.787 27.9141L177.223 32.0643C176.526 33.1919 175.311 33.8628 173.972 33.8569L173.069 33.8532C171.793 33.848 170.582 33.2097 169.832 32.1466C169.604 31.8256 169.175 31.7485 168.854 31.9694C168.678 32.091 168.499 32.2089 168.317 32.323C167.728 32.6885 167.119 33.0058 166.507 33.266C165.645 33.6338 164.784 33.8184 163.949 33.8146L148.423 33.7494C146.813 33.7427 145.369 32.7693 144.745 31.2688L143.501 28.2759L142.796 30.9078C142.351 32.5654 140.835 33.7175 139.109 33.7108L116.535 33.616C115.927 33.613 115.285 33.4788 114.572 33.2052C113.677 32.8642 112.906 32.2763 112.28 31.4571C111.709 30.7098 111.32 29.7846 111.125 28.7059C111.076 28.439 111.049 28.1499 111.041 27.8222C111.034 27.536 110.858 27.284 110.591 27.1794C110.322 27.0749 110.022 27.1402 109.822 27.347L101.226 36.2382C101.093 36.3746 100.948 36.5021 100.792 36.614C100.565 36.7757 100.321 36.9121 100.067 37.021L99.4358 37.2909C99.0326 37.4636 98.6057 37.5511 98.1669 37.5489C97.0047 37.5444 95.9492 36.9128 95.3429 35.8615C95.2466 35.694 95.1687 35.4901 95.105 35.2351C95.0294 34.9334 94.9871 34.682 94.9634 34.149C94.936 33.5433 95.0716 32.9398 95.3548 32.4046L95.4333 32.2563L94.518 31.7418C93.8331 32.8916 92.5753 33.6026 91.2352 33.5967L85.6874 33.5737C84.4614 33.5685 83.2792 32.9747 82.5254 31.9864C81.7724 30.9989 81.5219 29.7594 81.8383 28.5836L85.3494 15.52C85.4005 15.3258 85.3672 15.1182 85.2567 14.9514C85.1448 14.7816 84.9662 14.6675 84.7631 14.6378C84.5407 14.6052 84.3147 14.5466 84.0923 14.4658C83.9456 14.4117 83.7817 14.408 83.6335 14.4576C83.4319 14.5236 83.2511 14.5703 83.0791 14.5985L82.4172 14.7082L82.6833 15.3243C82.7048 15.3747 82.7256 15.4259 82.7456 15.4792C83.1643 16.5742 83.0798 17.7708 82.521 18.7516L82.1482 19.7821C81.9577 20.3292 81.4626 21.0817 81.0883 21.3924C80.4049 21.9602 79.5332 22.2701 78.6356 22.2664L75.2165 22.2523C74.8919 22.2509 74.6072 22.4696 74.5265 22.7824L72.4518 30.6824C72.0042 32.3497 70.4862 33.5099 68.7599 33.5025L32.4999 33.3505C31.2399 33.3454 30.0377 32.7248 29.2846 31.6921C28.9318 31.2088 28.6902 30.6357 28.5864 30.0337C28.5397 29.7683 28.3529 29.5533 28.0972 29.4725C27.8452 29.3932 27.5717 29.4591 27.3835 29.6474C27.0314 29.9974 26.7149 30.3161 26.4429 30.5927C26.0241 31.0167 25.7551 31.2873 25.6328 31.4067L25.5609 31.4742C25.168 31.8352 24.7078 32.2289 24.1533 32.6759C23.5634 33.1533 22.9281 33.6034 22.267 34.0141C21.5769 34.4418 20.8669 34.8118 20.1553 35.115C19.1925 35.525 18.2364 35.7311 17.3136 35.7274L5.03348 35.6755C3.80903 35.6703 2.62682 35.0779 1.87302 34.0912C1.11923 33.1044 0.867957 31.8649 1.18222 30.6905L6.82642 9.62693L6.32463 9.28664C4.8578 8.29025 4.21817 6.50579 4.73256 4.84736C5.22767 3.25046 6.69153 2.1829 8.37701 2.19031L32.8854 2.29262C33.5532 2.29558 35.1964 2.51873 36.0458 4.53302C36.1852 4.86218 36.5476 5.03492 36.893 4.93854C37.2399 4.83846 37.5986 4.78805 37.9596 4.78953L101.692 5.05716C102.917 5.06235 104.099 5.6547 104.852 6.64146C104.951 6.77045 105.048 6.91873 105.15 7.09517L105.478 7.66898L110.864 2.65144C110.938 2.58323 111.013 2.51725 111.093 2.4572C111.193 2.3801 111.295 2.31115 111.398 2.24517L112.581 1.52086C113.685 0.843995 115.154 0.917391 116.205 1.7151C116.622 2.03092 116.961 2.48093 117.215 3.054L117.345 3.34758C117.514 3.72716 117.605 4.13342 117.617 4.5523C117.622 4.77841 117.729 4.98303 117.91 5.11351C118.091 5.24399 118.318 5.28031 118.533 5.21359C118.903 5.10016 119.283 5.04382 119.664 5.0453L176.722 5.24918C177.179 5.25066 179.489 5.41154 180.139 8.37699C180.2 8.66019 180.254 8.97008 180.305 9.32519L180.507 10.7338L182.817 7.08257C183.518 5.97645 184.726 5.31886 186.047 5.32405L201.309 5.38781C201.333 5.38781 201.357 5.39078 201.381 5.39374C201.419 5.39745 201.457 5.40264 201.495 5.40412L201.53 5.4056L201.566 5.40264C201.656 5.39671 201.744 5.39003 201.836 5.39003H201.907C203.386 5.39671 204.691 6.44944 205.01 7.89881L205.781 9.74777C205.871 9.95831 206.057 10.1147 206.281 10.1644C206.503 10.2141 206.739 10.1526 206.909 10.0006L210.917 6.40719C211.619 5.77925 212.53 5.43526 213.479 5.43896L214.54 5.44341C215.288 5.44638 216.024 5.6673 216.668 6.08173C216.942 6.25817 217.296 6.22629 217.533 6.00537L220.637 3.11257C220.712 3.04362 220.789 2.97838 220.868 2.91759C220.968 2.84049 221.068 2.77154 221.173 2.70556L222.356 1.98125C223.46 1.30438 224.929 1.37778 225.981 2.17548C226.397 2.49056 226.735 2.94131 226.99 3.51439L227.084 3.72641C227.503 4.67462 227.468 5.74515 226.989 6.66296L224.309 11.7873C224.206 11.9859 224.202 12.215 224.297 12.4167C224.392 12.6176 224.581 12.7659 224.801 12.8111C225.056 12.8645 225.303 12.949 225.538 13.0617C226.491 13.522 227.212 14.2975 227.565 15.2442C227.703 15.6179 227.806 16.0019 227.868 16.3845C228.111 17.879 227.647 19.3759 226.563 20.5976C226.532 20.6317 226.503 20.6651 226.469 20.6992L225.455 21.7497L226.013 22.0907C227.925 23.2606 229.061 25.2734 229.052 27.4745C229.037 30.9723 226.156 33.8057 222.628 33.7909ZM231.998 26.4986L232.121 26.3703C232.164 26.3266 232.205 26.2821 232.246 26.2361C233.543 24.7719 234.096 22.9689 233.802 21.1571C233.729 20.7078 233.609 20.2578 233.447 19.8196C232.999 18.6164 232.091 17.6348 230.891 17.0573C230.712 16.9706 230.526 16.8964 230.336 16.8364L232.817 12.0902C233.447 10.8869 233.492 9.48355 232.942 8.24176L232.847 8.02973C232.521 7.29208 232.071 6.70418 231.513 6.28086C230.761 5.71001 229.871 5.40605 228.941 5.40234C228.763 5.4016 228.586 5.41346 228.411 5.43422C228.467 4.71436 228.345 3.98337 228.043 3.30058L227.949 3.08855C227.622 2.35089 227.173 1.76299 226.615 1.33967C225.862 0.768823 224.972 0.464864 224.041 0.460416C223.253 0.45745 222.48 0.67393 221.807 1.08613L220.621 1.81266C220.482 1.8994 220.355 1.98762 220.227 2.08623C220.123 2.16703 220.022 2.25229 219.923 2.34422L217.008 5.06058C216.251 4.62688 215.405 4.3978 214.544 4.39409L213.484 4.3889C212.273 4.38445 211.113 4.82334 210.217 5.62549L206.562 8.90158L206.027 7.6331C205.583 5.70111 203.897 4.34887 201.911 4.34071H201.84C201.734 4.33997 201.629 4.3459 201.525 4.35331L201.49 4.35035C201.432 4.34368 201.373 4.33849 201.313 4.33775L186.051 4.27473C184.366 4.26732 182.825 5.10728 181.93 6.52106L181.091 7.8481C180.177 4.39335 177.307 4.20208 176.726 4.19985L119.668 3.99598C119.321 3.9945 118.974 4.03082 118.633 4.10422C118.582 3.69573 118.471 3.29984 118.304 2.92248L118.173 2.62816C117.847 1.89199 117.399 1.30334 116.84 0.879285C116.088 0.308435 115.198 0.00447834 114.267 3.01641e-05C113.478 -0.00293529 112.705 0.2128 112.033 0.625739L110.845 1.35302C110.707 1.43901 110.581 1.52724 110.452 1.6251C110.347 1.70665 110.246 1.79264 110.149 1.88309L105.703 6.02509C105.697 6.01842 105.692 6.011 105.687 6.00433C104.736 4.76032 103.245 4.01377 101.697 4.00784L37.9635 3.74021C37.6026 3.73872 37.2431 3.77728 36.891 3.85586C35.7311 1.44717 33.549 1.24626 32.8893 1.2433L8.38096 1.14025C6.23149 1.13135 4.3622 2.4962 3.72996 4.53717C3.0918 6.5952 3.85079 8.8015 5.61928 10.0744L0.169274 30.4189C-0.230972 31.9105 0.0862454 33.4815 1.03942 34.7292C1.96369 35.9384 3.39864 36.6753 4.90104 36.7212C4.91809 37.7703 5.27313 38.7985 5.93724 39.6696C6.8882 40.9136 8.37948 41.6602 9.92709 41.6669L22.208 41.718C23.2745 41.7225 24.37 41.4882 25.4648 41.0219C26.2252 40.6979 26.9827 40.3028 27.7187 39.8468C28.4169 39.4131 29.0877 38.9379 29.7111 38.433C30.2825 37.9719 30.7599 37.5649 31.1698 37.1883L31.2631 37.0993C31.3884 36.9778 31.6626 36.702 32.0888 36.2697C32.2437 36.1126 32.4127 35.9421 32.5943 35.7597C32.7574 36.2964 33.0087 36.8035 33.3355 37.2521C34.2835 38.5532 35.8007 39.3345 37.3936 39.3412L73.6543 39.4932C75.8557 39.5028 77.7924 38.0231 78.3646 35.8924L80.3733 28.2445L80.8417 28.246L80.8247 28.3105C80.4229 29.8028 80.7379 31.3753 81.6911 32.6237C82.6146 33.8351 84.0518 34.5728 85.5542 34.6187C85.572 35.667 85.9256 36.6945 86.5897 37.5649C87.5399 38.8104 89.0319 39.5577 90.581 39.5644L96.1296 39.5873C97.0939 39.5918 98.0263 39.3041 98.812 38.7896C98.8075 38.9053 98.8083 39.0209 98.8135 39.1366C98.8379 39.6874 98.8809 40.0136 98.9862 40.4318C99.0736 40.7809 99.1863 41.0745 99.3316 41.3266C100.127 42.7055 101.521 43.5329 103.061 43.5396C103.644 43.5418 104.211 43.4269 104.747 43.1978L105.378 42.9279C105.702 42.7893 106.013 42.6143 106.302 42.4075C106.509 42.2585 106.703 42.0909 106.878 41.9093L114.307 34.2251C114.591 34.3303 114.867 34.4171 115.137 34.4838C115.388 35.455 115.792 36.3127 116.345 37.0363C117.092 38.012 118.018 38.7155 119.095 39.1262C119.928 39.4465 120.691 39.6037 121.43 39.6066L144.003 39.7015C146.089 39.7097 147.935 38.3893 148.607 36.4506L148.674 36.613C149.461 38.5042 151.284 39.7319 153.317 39.7401L168.843 39.8053C169.821 39.8098 170.822 39.597 171.817 39.1729C172.477 38.8912 173.134 38.5494 173.768 38.1565C173.871 38.092 173.973 38.026 174.074 37.9601C175.028 39.1388 176.458 39.8372 177.963 39.8439L178.866 39.8476C180.572 39.855 182.123 38.9987 183.014 37.5582L184.963 34.4037C185.579 34.7144 186.265 34.9049 186.988 34.9509L187.015 35.2089C187.291 37.8741 189.52 39.892 192.198 39.9032L207.011 39.9654C207.549 39.9677 208.084 39.8794 208.593 39.706C208.612 40.0611 208.641 40.3161 208.69 40.5771C208.796 41.1294 208.984 41.6142 209.25 42.0198C210.059 43.2534 211.4 43.994 212.836 43.9999C213.419 44.0029 213.986 43.888 214.522 43.6582L215.154 43.3883C215.479 43.2489 215.789 43.0747 216.076 42.8686C216.282 42.7211 216.476 42.5535 216.654 42.3697L221.781 37.0667C223.188 38.7644 225.305 39.7719 227.523 39.7816C231.629 39.7986 234.983 36.4959 235 32.4198C235.01 30.0631 233.899 27.8931 231.998 26.4986Z" fill="white"/>
<path d="M222.122 29.3989C220.76 29.3938 219.743 28.2913 219.748 26.9287C219.754 25.5661 220.78 24.4726 222.143 24.4785C223.505 24.4844 224.503 25.5861 224.498 26.9487C224.492 28.3114 223.484 29.4049 222.122 29.3989ZM222.145 23.8085C220.368 23.8011 218.916 25.1837 218.91 26.9066C218.902 28.6659 220.341 30.0619 222.119 30.0693C223.915 30.0767 225.329 28.6933 225.336 26.934C225.343 25.2111 223.942 23.8159 222.145 23.8085Z" fill="white"/>
<path d="M222.02 26.7679L221.698 26.7665L221.701 25.9717C221.796 25.9725 221.91 25.9539 222.061 25.9539C222.439 25.9561 222.647 26.1081 222.646 26.3735C222.645 26.6382 222.379 26.7694 222.02 26.7679ZM222.908 26.9992L222.908 26.9607C223.306 26.8487 223.591 26.5856 223.592 26.2638C223.594 25.9606 223.462 25.733 223.255 25.5996C223.047 25.4668 222.763 25.3705 222.12 25.3682C221.553 25.3653 221.098 25.4209 220.852 25.4572L220.839 28.5042L221.672 28.5079L221.676 27.3536L221.998 27.3551C222.339 27.3558 222.509 27.4893 222.564 27.811C222.638 28.1335 222.694 28.3982 222.788 28.5124L223.716 28.5161C223.658 28.4026 223.584 28.2321 223.491 27.7769C223.398 27.3603 223.229 27.1134 222.908 26.9992Z" fill="white"/>
<path d="M134.703 7.77796L129.304 7.75572C129.02 7.75424 128.787 7.92624 128.716 8.19017L123.915 25.997C123.845 26.2609 123.612 26.4329 123.327 26.4321L122.653 26.4292C122.176 26.4195 121.822 26.1786 121.649 26.0377C121.475 25.8961 121.323 25.6493 121.194 25.2956C121.069 24.9539 121.034 24.4238 121.087 23.7062C121.091 23.6632 121.097 23.6194 121.108 23.5786L125.125 8.69874C125.248 8.23983 124.842 7.73719 124.346 7.73497L119.128 7.71273C118.843 7.71199 118.61 7.88398 118.539 8.14865L113.948 25.4113C113.709 26.3032 113.641 27.0371 113.746 27.6124C113.85 28.1884 114.032 28.6466 114.294 28.9884C114.555 29.3301 114.856 29.5666 115.197 29.6971C115.538 29.8283 115.815 29.8928 116.026 29.8936L129.296 29.9492C129.581 29.9507 129.814 29.7794 129.885 29.5155L135.482 8.74322C135.605 8.28432 135.198 7.78019 134.703 7.77796Z" fill="white"/>
<path d="M155.319 7.8647L149.744 7.84172C149.459 7.84024 149.226 8.01224 149.156 8.27616L147.65 13.8964C147.485 14.5103 146.596 14.4628 146.322 13.826L143.959 8.31916C143.831 8.02113 143.53 7.81503 143.22 7.81355L138.546 7.79428C138.261 7.79354 138.028 7.96479 137.957 8.22797L132.349 29.0002C132.225 29.4591 132.631 29.9633 133.128 29.9655L138.6 29.9885C138.885 29.9899 139.118 29.818 139.188 29.554L141.815 19.7502C141.98 19.1319 142.879 19.1853 143.146 19.8288L147.171 29.514C147.296 29.8165 147.6 30.0263 147.914 30.0278L149.816 30.0359C150.099 30.0367 150.332 29.8669 150.404 29.6044L156.097 8.83218C156.223 8.37254 155.816 7.86693 155.319 7.8647Z" fill="white"/>
<path d="M170.185 17.9177C170.174 18.0645 170.114 18.1972 170.016 18.2966L160.544 27.9054C160.504 27.9439 160.452 27.9662 160.397 27.9662C160.263 27.9654 160.165 27.8386 160.2 27.7082L164.616 11.1765C164.686 10.9133 164.919 10.7413 165.203 10.7421L169.233 10.7591C169.614 10.7606 169.971 11.0683 170.028 11.4501C170.214 12.6985 170.267 13.1559 170.288 14.2687C170.31 15.5068 170.276 16.7226 170.185 17.9177ZM174.634 21.0157C175.07 20.5717 175.419 20.2091 175.683 19.9282C175.94 19.6709 176.108 19.4604 176.187 19.2958C176.267 19.1327 176.335 18.9444 176.391 18.7331L176.542 18.1697C176.629 17.8412 176.702 17.3549 176.757 16.7092C176.812 16.0634 176.848 15.3591 176.865 14.5955C176.88 13.8334 176.877 13.058 176.853 12.2706C176.828 11.4833 176.785 10.7679 176.724 10.1214C176.662 9.47495 176.585 8.94635 176.496 8.5349C176.406 8.12418 176.304 7.91809 176.186 7.91734L158.963 7.84469C158.679 7.84395 158.446 8.0152 158.375 8.27839L152.78 29.0862C152.656 29.5451 153.063 30.0493 153.559 30.0515L163.439 30.093C163.839 30.0945 164.27 29.9966 164.735 29.7987C165.199 29.6015 165.656 29.3628 166.108 29.0825C166.558 28.8023 166.987 28.4991 167.392 28.1721C167.797 27.8452 168.14 27.5531 168.42 27.2958C168.516 27.2024 168.724 26.9919 169.047 26.6642C169.371 26.3365 169.756 25.951 170.204 25.5062C170.652 25.0621 171.142 24.5706 171.674 24.0331C172.206 23.4949 172.722 22.9692 173.225 22.4547C173.727 21.9395 174.197 21.4606 174.634 21.0157Z" fill="white"/>
<path d="M184.298 21.7609L180.376 21.7438C179.794 21.7416 179.376 21.0721 179.67 20.614L183.856 14.0759C183.896 14.0136 183.967 13.9795 184.041 13.9891C184.129 14.0003 184.198 14.0707 184.207 14.1589L184.905 21.0892C184.943 21.4658 184.674 21.7623 184.298 21.7609ZM190.069 8.01075L185.51 7.99148C185.293 7.99074 185.102 8.09082 184.993 8.26282L176.367 21.9039L174.654 24.6091L171.854 29.0017C171.561 29.4599 171.98 30.1286 172.56 30.1308L173.463 30.1345C173.682 30.136 173.875 30.0337 173.983 29.858L177.479 24.1984L177.719 23.8463L184.53 23.8752C184.925 23.8767 185.286 24.2058 185.327 24.601L185.832 29.4651C185.872 29.8602 186.233 30.1886 186.629 30.1901L192.978 30.2168C193.362 30.2183 193.632 29.9091 193.582 29.5244L190.864 8.71653C190.813 8.3288 190.457 8.01224 190.069 8.01075Z" fill="white"/>
<path d="M214.005 8.11084L212.943 8.10639C212.784 8.10565 212.637 8.15977 212.527 8.25837L205.174 14.8498C204.828 15.1605 204.22 14.9729 204.017 14.4925L201.514 8.56529C201.387 8.2643 201.085 8.05672 200.773 8.05523L194.494 8.02929C194.033 8.0278 193.758 8.46447 193.94 8.90929L198.17 19.2669C198.23 19.4144 198.242 19.5716 198.204 19.7124L195.655 29.2671C195.532 29.726 195.939 30.2287 196.434 30.2309L201.608 30.2531C201.893 30.2546 202.125 30.0826 202.197 29.818L205.447 17.6855C205.476 17.5743 205.536 17.4772 205.619 17.4031L214.611 9.35781C215.07 8.94709 214.665 8.1138 214.005 8.11084Z" fill="white"/>
<path d="M25.0266 17.2066C25.0155 17.3534 24.9555 17.4861 24.8576 17.5854L13.2283 29.3828C13.209 29.402 13.1831 29.4124 13.1564 29.4124L12.8999 29.4117C12.8332 29.4109 12.7858 29.3487 12.8028 29.2849L16.783 14.428L18.2432 9.08868C18.3143 8.82476 18.5471 8.65276 18.8317 8.65425L24.0593 8.66536C24.4396 8.66611 24.7968 8.976 24.8554 9.35706C25.0955 10.9347 25.1311 11.3054 25.1563 12.7073C25.183 14.2345 25.1408 15.7328 25.0266 17.2066ZM32.351 18.8384C32.4473 18.6389 32.5303 18.4084 32.5993 18.1519L32.7838 17.4646C32.8906 17.0643 32.9773 16.4712 33.0462 15.6831C33.1129 14.8958 33.1567 14.0373 33.1774 13.1054C33.1959 12.175 33.1915 11.229 33.1626 10.2697C33.1329 9.31036 33.081 8.4363 33.0054 7.64823C32.9298 6.86016 32.8372 6.21517 32.7282 5.71327C32.6185 5.21211 32.4933 4.96004 32.3495 4.96004L7.84113 4.85774C7.16886 4.85477 7.00062 5.71179 7.5958 6.11583L9.61257 7.48587C9.64667 7.57187 9.69188 7.72236 9.74969 7.93736C9.80602 8.15235 9.82753 8.28877 9.81196 8.34585L3.74528 30.99C3.62224 31.449 4.02916 31.9523 4.52428 31.9538L16.8044 32.0057C17.2906 32.0079 17.8169 31.8886 18.3831 31.6469C18.9494 31.4067 19.5083 31.1153 20.0582 30.7736C20.609 30.4325 21.13 30.0619 21.6244 29.663C22.118 29.2642 22.5361 28.9083 22.8777 28.5947C22.9941 28.4813 23.2498 28.224 23.6441 27.8244C24.037 27.4248 24.5069 26.9541 25.0539 26.4121C25.6002 25.8702 26.1983 25.2712 26.8469 24.6158C27.4954 23.959 28.1261 23.3177 28.7391 22.6897C29.3513 22.0618 29.9243 21.4784 30.4565 20.9357C30.9886 20.3945 31.4141 19.9512 31.7358 19.6086C32.0493 19.295 32.2546 19.0385 32.351 18.8384Z" fill="white"/>
<path d="M46.0724 11.7506L45.83 12.0026C45.7952 12.0389 45.7248 12.1101 45.5906 12.248C44.9754 12.8796 44.384 13.4816 43.8199 14.0547C43.2714 14.6115 42.8845 14.9962 42.6614 15.2105C42.6466 15.2231 42.6325 15.235 42.6184 15.2476L41.7794 15.9059C41.7698 15.914 41.7557 15.9051 41.7587 15.8925L43.0602 10.9514C43.1306 10.6874 43.3633 10.5154 43.6487 10.5169L45.4431 10.5495C46.0724 10.5525 46.4801 11.3287 46.0724 11.7506ZM53.6499 16.122C53.3364 15.8863 52.9569 15.7024 52.5107 15.5704C52.0638 15.44 51.628 15.3554 51.2033 15.3184C50.8223 15.2858 50.5651 15.2672 50.4309 15.2628C50.4094 15.262 50.3946 15.242 50.4006 15.222L50.4843 14.9106C50.6451 14.7475 50.9364 14.4495 51.3582 14.0158C51.7799 13.5836 52.2269 13.121 52.699 12.6302C53.1711 12.1387 53.6121 11.6768 54.022 11.2438C54.4319 10.8109 54.7202 10.501 54.8885 10.3142C55.1516 10.0332 55.3169 9.83451 55.3836 9.71663C55.4503 9.60024 55.5244 9.38895 55.606 9.08351C55.6312 8.99084 55.6556 8.85517 55.6793 8.67872C55.7031 8.50302 55.7068 8.33251 55.6927 8.16792C55.6779 8.00408 55.6408 7.85729 55.5822 7.72755C55.5222 7.59856 55.4221 7.53332 55.2813 7.53258L37.4237 7.4577C37.1376 7.45621 36.9041 7.62969 36.8344 7.89584L36.2222 10.2356L31.6876 27.1616L31.2192 28.6377C31.0731 29.1003 31.483 29.6267 31.9907 29.6289L37.4237 29.6519C37.7083 29.6534 37.9418 29.4806 38.0122 29.2167L40.9837 18.1259C41.0548 17.862 41.2875 17.69 41.5722 17.6915L46.052 17.71C46.5478 17.7122 46.954 18.2149 46.831 18.6738L44.1397 28.7185C44.0166 29.1774 44.4235 29.6808 44.9187 29.683L50.0841 29.7045C50.3672 29.706 50.5984 29.5362 50.6711 29.2753L51.2344 27.2432L53.9687 17.0391C54.0687 16.6632 53.9627 16.3578 53.6499 16.122Z" fill="white"/>
<path d="M64.6908 7.57187L59.1296 7.54888C58.8457 7.5474 58.6137 7.71866 58.5418 7.9811L52.888 28.7534C52.7627 29.2123 53.1697 29.7179 53.6663 29.7194L59.2719 29.7431C59.5558 29.7446 59.7885 29.5733 59.8597 29.3101L65.469 8.53712C65.5928 8.07822 65.1867 7.57409 64.6908 7.57187Z" fill="white"/>
<path d="M82.2542 7.64526L68.4672 7.58743C68.1826 7.58669 67.9506 7.75795 67.8794 8.02113L62.2752 28.7941C62.1515 29.253 62.5584 29.7572 63.0542 29.7594L68.2507 29.7809C68.5361 29.7824 68.7689 29.6096 68.8393 29.3457L71.5683 18.9548C71.6387 18.6901 71.8715 18.5181 72.1569 18.5196L78.1264 18.5448C78.2858 18.5455 78.434 18.4914 78.5445 18.3913L79.0974 16.8018C79.2975 16.1598 79.1471 15.5586 78.4881 15.5563L73.7526 15.5363C73.2568 15.5341 72.8499 15.0315 72.9736 14.5726L73.829 11.3321C73.9001 11.0681 74.1321 10.8954 74.4175 10.8969L81.9273 10.9288C82.2126 10.9295 82.4454 10.7575 82.5158 10.4936L83.0339 8.60978C83.1569 8.15087 82.75 7.64749 82.2542 7.64526Z" fill="white"/>
<path d="M101.413 10.5848L101.935 8.6891C102.058 8.2302 101.652 7.72681 101.156 7.72459L85.0536 7.65787C84.769 7.65638 84.5356 7.82838 84.4651 8.09156L84.3302 8.59643C84.2072 9.05459 84.2265 10.9495 84.7223 10.9517L88.1785 10.9658C88.6736 10.9681 89.0806 11.4722 88.9568 11.9311L84.3992 28.8868C84.2754 29.3457 84.6823 29.8498 85.1782 29.8521L90.726 29.875C91.0106 29.8765 91.2434 29.7045 91.3138 29.4406L96.1427 11.4366C96.2131 11.1727 96.4458 11.0007 96.7304 11.0022L100.825 11.0192C101.11 11.0207 101.343 10.8487 101.413 10.5848Z" fill="white"/>
<path d="M114.375 15.9026C114.346 15.7232 114.298 15.5452 114.233 15.368C114.168 15.1923 114.079 14.9877 113.635 14.9314L109.596 14.4191C109.141 14.3249 108.89 13.7126 109.1 13.3211L113.707 4.52857C113.804 4.34323 113.753 4.11563 113.588 3.98812C113.417 3.85689 113.175 3.87321 113.023 4.02667C112.799 4.25353 112.512 4.5434 112.502 4.55081L99.3298 16.8004C99.3068 16.8211 99.2913 16.8508 99.2676 16.8693C97.9215 17.9332 98.4411 19.2394 98.9837 19.3455L103.208 20.1194C103.32 20.1617 103.429 20.204 103.536 20.2447C103.976 20.4123 104.211 20.9186 104.031 21.3049L97.7147 33.246C97.5406 33.5285 97.8519 33.9533 98.1661 33.6367L113.836 17.4683C114.283 16.9657 114.462 16.443 114.375 15.9026Z" fill="white"/>
<path d="M224.15 16.3637C224.12 16.1835 224.074 16.0056 224.008 15.8292C223.943 15.6527 223.854 15.4489 223.41 15.3918L219.371 14.8795C218.916 14.7853 218.664 14.1737 218.875 13.7815L223.482 4.98896C223.579 4.80361 223.529 4.57602 223.363 4.44925C223.192 4.31802 222.95 4.33359 222.798 4.48705C222.574 4.71391 222.287 5.00304 222.276 5.0112L209.104 17.2607C209.082 17.2808 209.067 17.3112 209.043 17.3297C207.696 18.3935 208.216 19.7006 208.759 19.8066L212.982 20.5798C213.094 20.6228 213.204 20.6643 213.311 20.7051C213.75 20.8734 213.986 21.379 213.806 21.766L207.489 33.7064C207.315 33.9896 207.627 34.4137 207.941 34.0971L223.61 17.9295C224.057 17.4261 224.238 16.9041 224.15 16.3637Z" fill="white"/>
</svg>
